<?xml version="1.0" encoding="UTF-8" standalone="no"?>
<!DOCTYPE svg PUBLIC "-//W3C//DTD SVG 1.1//EN" "http://www.w3.org/Graphics/SVG/1.1/DTD/svg11.dtd">
<svg width="100%" height="100%" viewBox="0 0 2268 1217" version="1.1" xmlns="http://www.w3.org/2000/svg" xmlns:xlink="http://www.w3.org/1999/xlink" xml:space="preserve" xmlns:serif="http://www.serif.com/" style="fill-rule:evenodd;clip-rule:evenodd;stroke-linejoin:round;stroke-miterlimit:2;">
    <g transform="matrix(1.93013,0,0,1.93013,-3489.58,-3551.62)">
        <path d="M1830.74,2323.55C1830.66,2324.15 1830.84,2324.76 1831.24,2325.21C1831.63,2325.66 1832.21,2325.93 1832.81,2325.92L1868.17,2325.83C1870.31,2325.83 1872.51,2325.95 1874.78,2326.19C1876.88,2326.41 1878.75,2326.92 1880.4,2327.72C1881.89,2328.44 1883.06,2329.46 1883.91,2330.79C1884.73,2332.08 1884.89,2333.79 1884.58,2335.9C1884.58,2335.92 1884.57,2335.94 1884.57,2335.96C1884.32,2338.06 1883.71,2339.82 1882.7,2341.21C1881.69,2342.61 1880.46,2343.71 1879.02,2344.52C1877.5,2345.37 1875.85,2345.97 1874.07,2346.32C1872.2,2346.7 1870.29,2346.88 1868.32,2346.88C1868.32,2346.88 1829.3,2346.88 1829.3,2346.88C1828.26,2346.88 1827.38,2347.64 1827.23,2348.67L1818.66,2409.93C1818.58,2410.53 1818.76,2411.14 1819.16,2411.59C1819.55,2412.05 1820.13,2412.31 1820.73,2412.31L1844.15,2412.31C1845.19,2412.31 1846.07,2411.54 1846.21,2410.51L1851.67,2370.87C1851.67,2370.87 1866.97,2370.87 1866.97,2370.87C1872.73,2370.87 1878.15,2370.33 1883.24,2369.25C1888.46,2368.14 1893.1,2366.26 1897.16,2363.62C1901.26,2360.96 1904.71,2357.39 1907.48,2352.91C1910.22,2348.49 1912.08,2343.03 1913.03,2336.5C1913.03,2336.5 1913.03,2336.5 1913.03,2336.5C1913.99,2329.77 1913.56,2324.2 1911.86,2319.76C1910.1,2315.22 1907.41,2311.62 1903.8,2308.93C1900.27,2306.31 1895.98,2304.45 1890.9,2303.39C1886.01,2302.36 1880.74,2301.84 1875.08,2301.84C1875.08,2301.84 1835.59,2301.84 1835.59,2301.84C1834.55,2301.84 1833.67,2302.61 1833.53,2303.64L1830.74,2323.55Z" style="fill:rgb(13,110,253);fill-rule:nonzero;"/>
    </g>
    <g transform="matrix(1.93013,0,0,1.93013,-3465.72,-3551.62)">
        <path d="M1996.72,2356.73C1995.48,2365.54 1995.85,2373.52 1997.82,2380.68C1999.82,2387.91 2003.13,2394.06 2007.74,2399.15C2012.35,2404.23 2018.13,2408.14 2025.1,2410.86C2031.97,2413.55 2039.7,2414.91 2048.28,2414.91C2056.83,2414.91 2064.88,2413.57 2072.45,2410.89C2080.04,2408.2 2086.83,2404.36 2092.82,2399.35C2098.81,2394.33 2103.78,2388.26 2107.71,2381.13C2111.62,2374.01 2114.21,2366.08 2115.45,2357.32C2116.69,2348.5 2116.31,2340.52 2114.34,2333.37C2112.35,2326.14 2109.04,2319.98 2104.43,2314.9C2099.82,2309.82 2094.06,2305.91 2087.15,2303.18C2080.32,2300.5 2072.62,2299.14 2064.03,2299.14C2055.49,2299.14 2047.41,2300.48 2039.79,2303.16C2032.15,2305.84 2025.36,2309.7 2019.41,2314.71C2013.48,2319.72 2008.51,2325.78 2004.54,2332.91C2000.57,2340.03 1997.96,2347.97 1996.72,2356.73ZM2025.14,2357.32C2025.81,2352.65 2027.16,2348.32 2029.21,2344.32C2031.25,2340.35 2033.82,2336.91 2036.95,2334.03C2040.06,2331.15 2043.64,2328.91 2047.7,2327.31C2051.76,2325.7 2056.16,2324.91 2060.88,2324.91C2065.56,2324.91 2069.68,2325.68 2073.23,2327.28C2076.72,2328.84 2079.62,2331.02 2081.92,2333.82C2084.22,2336.63 2085.8,2339.97 2086.68,2343.83C2087.57,2347.8 2087.68,2352.1 2087.02,2356.73C2087.02,2356.73 2087.02,2356.73 2087.02,2356.74C2086.35,2361.49 2085,2365.84 2082.96,2369.79C2080.92,2373.72 2078.34,2377.13 2075.22,2380.02C2072.11,2382.89 2068.52,2385.13 2064.47,2386.74C2060.4,2388.34 2056.01,2389.14 2051.28,2389.14C2046.61,2389.14 2042.49,2388.36 2038.93,2386.77C2035.45,2385.21 2032.58,2383.04 2030.33,2380.24C2028.07,2377.43 2026.48,2374.1 2025.56,2370.26C2024.61,2366.35 2024.49,2362.03 2025.14,2357.32L2025.14,2357.32Z" style="fill:rgb(13,110,253);fill-rule:nonzero;"/>
    </g>
    <g transform="matrix(1.93013,0,0,1.93013,-3455.72,-3551.62)">
        <path d="M2128.08,2301.84C2127.04,2301.84 2126.16,2302.61 2126.02,2303.64L2111.17,2409.84C2111.08,2410.43 2111.26,2411.04 2111.66,2411.49C2112.05,2411.95 2112.63,2412.21 2113.23,2412.21L2135.51,2412.21C2136.53,2412.21 2137.41,2411.46 2137.56,2410.44L2144.42,2366C2144.42,2366 2188.94,2365.79 2188.94,2365.79C2189.98,2365.79 2190.85,2365.03 2191,2364L2193.08,2349.34C2193.16,2348.75 2192.99,2348.14 2192.59,2347.68C2192.19,2347.23 2191.62,2346.97 2191.02,2346.97L2147.48,2346.97C2147.48,2346.97 2150.59,2325.85 2150.59,2325.85C2150.59,2325.85 2199.85,2325.85 2199.85,2325.85C2200.89,2325.85 2201.77,2325.08 2201.91,2324.05L2204.6,2304.2C2204.68,2303.61 2204.5,2303.01 2204.1,2302.55C2203.71,2302.1 2203.14,2301.84 2202.53,2301.84L2128.08,2301.84Z" style="fill:rgb(13,110,253);fill-rule:nonzero;"/>
    </g>
    <g transform="matrix(1.93013,0,0,1.93013,-3443.79,-3551.62)">
        <path d="M2209.43,2301.84C2208.39,2301.84 2207.51,2302.61 2207.37,2303.64L2192.52,2409.84C2192.43,2410.43 2192.62,2411.04 2193.01,2411.49C2193.41,2411.95 2193.98,2412.21 2194.58,2412.21L2217.98,2412.21C2219.02,2412.21 2219.9,2411.44 2220.05,2410.41L2234.89,2304.21C2234.98,2303.62 2234.8,2303.01 2234.4,2302.56C2234.01,2302.1 2233.43,2301.84 2232.83,2301.84L2209.43,2301.84Z" style="fill:rgb(13,110,253);fill-rule:nonzero;"/>
    </g>
    <g transform="matrix(1.93013,0,0,1.93013,-3351.93,-3551.62)">
        <path d="M2434.53,2301.84C2433.49,2301.84 2432.61,2302.61 2432.47,2303.64L2417.62,2409.84C2417.53,2410.43 2417.71,2411.04 2418.11,2411.49C2418.5,2411.95 2419.08,2412.21 2419.68,2412.21L2443.08,2412.21C2444.12,2412.21 2445,2411.44 2445.14,2410.41L2459.99,2304.21C2460.08,2303.62 2459.9,2303.01 2459.5,2302.56C2459.11,2302.1 2458.53,2301.84 2457.93,2301.84L2434.53,2301.84Z" style="fill:rgb(25,135,84);fill-rule:nonzero;"/>
    </g>
    <g transform="matrix(1.93013,0,0,1.93013,-3340,-3551.62)">
        <path d="M2485.82,2341.23L2518.91,2411.02C2519.26,2411.74 2519.99,2412.21 2520.79,2412.21L2551.39,2412.21C2552.43,2412.21 2553.31,2411.44 2553.45,2410.41L2568.3,2304.21C2568.39,2303.62 2568.21,2303.01 2567.81,2302.56C2567.42,2302.1 2566.85,2301.84 2566.24,2301.84L2542.84,2301.84C2541.8,2301.84 2540.92,2302.61 2540.78,2303.63L2531.33,2371.01L2499.28,2303.03C2498.93,2302.31 2498.2,2301.84 2497.39,2301.84L2465.59,2301.84C2464.55,2301.84 2463.67,2302.61 2463.53,2303.64L2448.68,2409.84C2448.6,2410.43 2448.78,2411.04 2449.17,2411.49C2449.57,2411.95 2450.14,2412.21 2450.74,2412.21L2474.14,2412.21C2475.18,2412.21 2476.06,2411.44 2476.21,2410.41L2485.82,2341.23ZM2484.43,2336.02C2484.48,2336.15 2484.52,2336.27 2484.55,2336.36L2484.4,2336.26L2484.43,2336.02ZM2485.42,2335.53L2485.51,2335.71L2485.31,2336.03L2485.16,2336.16C2485.23,2335.99 2485.33,2335.77 2485.42,2335.53Z" style="fill:rgb(25,135,84);fill-rule:nonzero;"/>
    </g>
    <g transform="matrix(1.93013,0,0,1.93013,-3328.07,-3551.62)">
        <path d="M2573.51,2301.84C2572.48,2301.84 2571.6,2302.61 2571.45,2303.64L2556.6,2409.84C2556.52,2410.43 2556.7,2411.04 2557.09,2411.49C2557.49,2411.95 2558.06,2412.21 2558.66,2412.21L2582.07,2412.21C2583.1,2412.21 2583.98,2411.44 2584.13,2410.41L2598.98,2304.21C2599.06,2303.62 2598.88,2303.01 2598.49,2302.56C2598.09,2302.1 2597.52,2301.84 2596.91,2301.84L2573.51,2301.84Z" style="fill:rgb(25,135,84);fill-rule:nonzero;"/>
    </g>
    <g transform="matrix(1.93013,0,0,1.93013,-3316.14,-3551.62)">
        <path d="M2691.8,2404.5C2692.43,2404.2 2692.87,2403.6 2692.96,2402.91L2700.25,2349.33C2700.33,2348.74 2700.15,2348.13 2699.75,2347.68C2699.36,2347.23 2698.79,2346.97 2698.18,2346.97L2656.64,2346.97C2655.59,2346.97 2654.71,2347.74 2654.57,2348.77L2651.93,2368.45C2651.85,2369.04 2652.03,2369.64 2652.43,2370.1C2652.83,2370.55 2653.4,2370.81 2654,2370.81L2670.66,2370.81C2670.66,2370.81 2668.74,2384.6 2668.74,2384.6C2666.65,2385.58 2663.99,2386.55 2660.76,2387.5C2657.03,2388.6 2652.73,2389.14 2647.85,2389.14C2643.17,2389.14 2639.05,2388.36 2635.5,2386.77C2632.01,2385.21 2629.14,2383.04 2626.9,2380.24C2624.63,2377.43 2623.05,2374.1 2622.12,2370.26C2621.18,2366.35 2621.05,2362.03 2621.71,2357.32C2622.38,2352.65 2623.73,2348.32 2625.78,2344.32C2627.81,2340.35 2630.39,2336.91 2633.51,2334.03C2636.62,2331.15 2640.21,2328.91 2644.26,2327.31C2648.33,2325.7 2652.72,2324.91 2657.45,2324.91C2663.1,2324.91 2667.72,2325.68 2671.3,2327.28C2674.8,2328.84 2677.8,2331.15 2680.29,2334.19C2680.65,2334.64 2681.19,2334.92 2681.77,2334.95C2682.34,2334.99 2682.91,2334.78 2683.33,2334.39L2702.38,2316.39C2703.22,2315.6 2703.25,2314.28 2702.47,2313.45C2697.52,2308.18 2691.44,2304.46 2684.22,2302.3C2677.19,2300.2 2669.32,2299.14 2660.6,2299.14C2652.05,2299.14 2643.98,2300.48 2636.36,2303.16C2628.71,2305.84 2621.92,2309.7 2615.98,2314.71C2610.04,2319.72 2605.08,2325.78 2601.11,2332.91C2597.13,2340.03 2594.52,2347.97 2593.29,2356.73C2592.04,2365.54 2592.42,2373.52 2594.39,2380.68C2596.38,2387.91 2599.69,2394.06 2604.31,2399.15C2608.92,2404.23 2614.7,2408.14 2621.66,2410.86C2628.54,2413.55 2636.27,2414.91 2644.85,2414.91C2652.79,2414.91 2660.68,2414.09 2668.52,2412.46C2676.38,2410.83 2684.14,2408.18 2691.8,2404.5Z" style="fill:rgb(25,135,84);fill-rule:nonzero;"/>
    </g>
    <g transform="matrix(1.93013,0,0,1.93013,-3304.21,-3551.62)">
        <path d="M2711.15,2301.84C2710.11,2301.84 2709.23,2302.61 2709.09,2303.64L2694.24,2409.84C2694.15,2410.43 2694.33,2411.04 2694.73,2411.49C2695.12,2411.95 2695.7,2412.21 2696.3,2412.21L2771.15,2412.21C2772.19,2412.21 2773.07,2411.44 2773.21,2410.41L2776.21,2388.81C2776.3,2388.21 2776.12,2387.61 2775.72,2387.16C2775.32,2386.7 2774.75,2386.44 2774.15,2386.44L2724.43,2386.44C2724.43,2386.44 2727.49,2366 2727.49,2366C2727.49,2366 2772.01,2365.79 2772.01,2365.79C2773.05,2365.79 2773.92,2365.03 2774.07,2364L2776.15,2349.34C2776.23,2348.75 2776.05,2348.14 2775.66,2347.68C2775.26,2347.23 2774.69,2346.97 2774.09,2346.97L2730.55,2346.97C2730.55,2346.97 2733.66,2325.85 2733.66,2325.85C2733.66,2325.85 2782.91,2325.85 2782.91,2325.85C2783.96,2325.85 2784.84,2325.08 2784.98,2324.05L2787.67,2304.2C2787.75,2303.61 2787.57,2303.01 2787.17,2302.55C2786.78,2302.1 2786.2,2301.84 2785.6,2301.84L2711.15,2301.84Z" style="fill:rgb(25,135,84);fill-rule:nonzero;"/>
    </g>
    <g transform="matrix(1.93013,0,0,1.93013,-3363.86,-3551.62)">
        <path d="M2352.85,2301.84C2351.81,2301.84 2350.93,2302.61 2350.79,2303.64L2335.94,2409.84C2335.86,2410.43 2336.03,2411.04 2336.43,2411.49C2336.83,2411.95 2337.4,2412.21 2338,2412.21L2412.85,2412.21C2413.89,2412.21 2414.77,2411.44 2414.91,2410.41L2417.91,2388.81C2418,2388.21 2417.82,2387.61 2417.42,2387.16C2417.03,2386.7 2416.45,2386.44 2415.85,2386.44L2366.13,2386.44C2366.13,2386.44 2369.2,2366 2369.2,2366C2369.2,2366 2413.72,2365.79 2413.72,2365.79C2414.75,2365.79 2415.62,2365.03 2415.77,2364L2417.85,2349.34C2417.93,2348.75 2417.76,2348.14 2417.36,2347.68C2416.97,2347.23 2416.39,2346.97 2415.79,2346.97L2372.25,2346.97C2372.25,2346.97 2375.36,2325.85 2375.36,2325.85C2375.36,2325.85 2424.62,2325.85 2424.62,2325.85C2425.66,2325.85 2426.54,2325.08 2426.68,2324.05L2429.37,2304.2C2429.45,2303.61 2429.27,2303.01 2428.87,2302.55C2428.48,2302.1 2427.91,2301.84 2427.3,2301.84L2352.85,2301.84Z" style="fill:rgb(25,135,84);fill-rule:nonzero;"/>
    </g>
    <g transform="matrix(1.93013,0,0,1.93013,-3292.28,-3551.62)">
        <path d="M2841.2,2368.89C2845.89,2367.76 2850.09,2365.98 2853.81,2363.57C2857.91,2360.91 2861.35,2357.34 2864.12,2352.87C2866.86,2348.45 2868.72,2342.99 2869.66,2336.47C2869.66,2336.47 2869.66,2336.47 2869.66,2336.47C2870.62,2329.75 2870.2,2324.18 2868.49,2319.75C2866.74,2315.21 2864.05,2311.61 2860.44,2308.93C2856.92,2306.31 2852.63,2304.45 2847.55,2303.39C2842.67,2302.36 2837.4,2301.84 2831.75,2301.84C2831.75,2301.84 2792.3,2301.84 2792.3,2301.84C2791.26,2301.84 2790.38,2302.61 2790.24,2303.64L2787.45,2323.53C2787.37,2324.13 2787.55,2324.74 2787.95,2325.19C2788.34,2325.65 2788.92,2325.91 2789.52,2325.91L2824.85,2325.81C2826.98,2325.81 2829.18,2325.93 2831.45,2326.17C2833.55,2326.39 2835.42,2326.9 2837.06,2327.7C2838.55,2328.42 2839.72,2329.44 2840.57,2330.77C2841.39,2332.05 2841.55,2333.76 2841.24,2335.87C2841.24,2335.89 2841.23,2335.91 2841.23,2335.93C2840.98,2338.03 2840.37,2339.78 2839.36,2341.17C2838.35,2342.57 2837.12,2343.68 2835.68,2344.48C2834.17,2345.33 2832.52,2345.93 2830.74,2346.28C2828.87,2346.65 2826.96,2346.84 2825,2346.84C2825,2346.84 2786.01,2346.84 2786.01,2346.84C2784.97,2346.84 2784.09,2347.6 2783.94,2348.63L2775.39,2409.84C2775.3,2410.43 2775.48,2411.04 2775.88,2411.49C2776.27,2411.95 2776.85,2412.21 2777.45,2412.21L2800.85,2412.21C2801.89,2412.21 2802.77,2411.44 2802.91,2410.41L2808.37,2370.81L2813.34,2370.81L2828.78,2410.87C2829.09,2411.68 2829.86,2412.21 2830.72,2412.21L2858.77,2412.21C2859.49,2412.21 2860.15,2411.84 2860.53,2411.23C2860.91,2410.62 2860.96,2409.87 2860.65,2409.22L2841.2,2368.89Z" style="fill:rgb(25,135,84);fill-rule:nonzero;"/>
    </g>
    <g transform="matrix(1.93013,0,0,1.93013,-3375.79,-3551.62)">
        <path d="M2314.2,2368.89C2318.89,2367.76 2323.09,2365.98 2326.81,2363.57C2330.91,2360.91 2334.35,2357.34 2337.12,2352.87C2339.86,2348.45 2341.72,2342.99 2342.66,2336.47C2342.66,2336.47 2342.66,2336.47 2342.66,2336.47C2343.62,2329.75 2343.2,2324.18 2341.49,2319.75C2339.74,2315.21 2337.05,2311.61 2333.44,2308.93C2329.92,2306.31 2325.63,2304.45 2320.55,2303.39C2315.67,2302.36 2310.4,2301.84 2304.75,2301.84C2304.75,2301.84 2265.3,2301.84 2265.3,2301.84C2264.26,2301.84 2263.38,2302.61 2263.24,2303.64L2260.45,2323.53C2260.37,2324.13 2260.55,2324.74 2260.95,2325.19C2261.34,2325.65 2261.92,2325.91 2262.52,2325.91L2297.85,2325.81C2299.98,2325.81 2302.18,2325.93 2304.45,2326.17C2306.55,2326.39 2308.42,2326.9 2310.06,2327.7C2311.55,2328.42 2312.72,2329.44 2313.57,2330.77C2314.39,2332.05 2314.55,2333.76 2314.24,2335.87C2314.24,2335.89 2314.23,2335.91 2314.23,2335.93C2313.98,2338.03 2313.37,2339.78 2312.36,2341.17C2311.35,2342.57 2310.12,2343.68 2308.68,2344.48C2307.17,2345.33 2305.52,2345.93 2303.74,2346.28C2301.87,2346.65 2299.96,2346.84 2298,2346.84C2298,2346.84 2259.01,2346.84 2259.01,2346.84C2257.97,2346.84 2257.09,2347.6 2256.94,2348.63L2248.39,2409.84C2248.3,2410.43 2248.48,2411.04 2248.88,2411.49C2249.27,2411.95 2249.85,2412.21 2250.45,2412.21L2273.85,2412.21C2274.89,2412.21 2275.77,2411.44 2275.91,2410.41L2281.37,2370.81L2286.34,2370.81L2301.78,2410.87C2302.09,2411.68 2302.86,2412.21 2303.72,2412.21L2331.77,2412.21C2332.49,2412.21 2333.15,2411.84 2333.53,2411.23C2333.91,2410.62 2333.96,2409.87 2333.65,2409.22L2314.2,2368.89Z" style="fill:rgb(25,135,84);fill-rule:nonzero;"/>
    </g>
    <g transform="matrix(1.93013,0,0,1.93013,-3479.58,-3551.62)">
        <path d="M1971.21,2368.89C1975.89,2367.76 1980.09,2365.98 1983.81,2363.57C1987.91,2360.91 1991.35,2357.34 1994.12,2352.87C1996.86,2348.45 1998.72,2342.99 1999.66,2336.47C1999.66,2336.47 1999.66,2336.47 1999.66,2336.47C2000.62,2329.75 2000.2,2324.18 1998.49,2319.75C1996.74,2315.21 1994.05,2311.61 1990.44,2308.93C1986.92,2306.31 1982.63,2304.45 1977.55,2303.39C1972.67,2302.36 1967.4,2301.84 1961.75,2301.84C1961.75,2301.84 1922.3,2301.84 1922.3,2301.84C1921.26,2301.84 1920.38,2302.61 1920.24,2303.64L1917.45,2323.53C1917.37,2324.13 1917.55,2324.74 1917.95,2325.19C1918.34,2325.65 1918.92,2325.91 1919.52,2325.91L1954.85,2325.81C1956.98,2325.81 1959.18,2325.93 1961.45,2326.17C1963.55,2326.39 1965.42,2326.9 1967.06,2327.7C1968.55,2328.42 1969.72,2329.44 1970.57,2330.77C1971.39,2332.05 1971.55,2333.76 1971.24,2335.87C1971.24,2335.89 1971.23,2335.91 1971.23,2335.93C1970.98,2338.03 1970.37,2339.78 1969.37,2341.17C1968.35,2342.57 1967.12,2343.68 1965.68,2344.48C1964.17,2345.33 1962.52,2345.93 1960.74,2346.28C1958.87,2346.65 1956.96,2346.84 1955,2346.84C1955,2346.84 1916.01,2346.84 1916.01,2346.84C1914.97,2346.84 1914.09,2347.6 1913.94,2348.63L1905.39,2409.84C1905.3,2410.43 1905.48,2411.04 1905.88,2411.49C1906.27,2411.95 1906.85,2412.21 1907.45,2412.21L1930.85,2412.21C1931.89,2412.21 1932.77,2411.44 1932.91,2410.41L1938.37,2370.81L1943.34,2370.81L1958.78,2410.87C1959.09,2411.68 1959.86,2412.21 1960.72,2412.21L1988.77,2412.21C1989.49,2412.21 1990.15,2411.84 1990.53,2411.23C1990.91,2410.62 1990.96,2409.87 1990.65,2409.22L1971.21,2368.89Z" style="fill:rgb(13,110,253);fill-rule:nonzero;"/>
    </g>
    <g transform="matrix(1,0,0,1,-22,-3)">
        <path d="M1403.88,507.06C1432.9,500.633 1458.76,490.023 1481.46,475.277C1504.99,460.002 1524.71,439.553 1540.6,413.89C1556.35,388.449 1567.03,356.977 1572.48,319.422C1572.48,319.416 1572.48,319.41 1572.48,319.404C1577.98,280.872 1575.66,248.928 1565.87,223.545C1555.92,197.726 1540.63,177.226 1520.1,161.984C1499.91,146.99 1475.3,136.375 1446.23,130.255C1417.89,124.289 1387.31,121.295 1354.5,121.295C1354.5,121.295 1162.3,121.295 1162.3,121.295C1158.51,121.295 1155.23,123.943 1154.43,127.651C1153.64,131.358 1155.54,135.117 1159,136.672C1170.78,141.966 1181.56,148.26 1191.34,155.527C1213.07,171.659 1229.29,193.327 1239.82,220.652C1242.94,228.754 1245.36,237.507 1247.03,246.908C1247.72,250.753 1251.07,253.549 1254.97,253.538L1314.09,253.374C1326.7,253.374 1339.74,254.092 1353.21,255.525C1365.98,256.884 1377.4,259.975 1387.45,264.866C1396.89,269.458 1404.31,275.94 1409.66,284.359C1414.92,292.623 1416.21,303.566 1414.21,317.089C1414.2,317.162 1414.19,317.235 1414.18,317.309C1412.6,330.425 1408.77,341.348 1402.48,350.005C1396.15,358.697 1388.53,365.558 1379.57,370.562C1370.33,375.725 1360.28,379.385 1349.41,381.559C1338.2,383.8 1326.72,384.918 1314.95,384.918C1314.95,384.918 1235.8,384.909 1235.8,384.909C1232.57,384.909 1229.64,386.85 1228.39,389.834C1224.13,399.958 1219.29,409.385 1213.88,418.123C1197.34,444.844 1176.78,466.117 1152.29,482.022C1128.15,497.699 1100.58,508.878 1069.54,515.462C1068.56,515.669 1067.58,515.873 1066.6,516.074C1063.26,516.755 1060.72,519.466 1060.24,522.84L1028.43,750.375C1028.11,752.679 1028.8,755.011 1030.33,756.767C1031.85,758.522 1034.07,759.531 1036.39,759.531L1173.48,759.531C1177.5,759.531 1180.9,756.565 1181.44,752.585L1213.88,516.997C1213.88,516.997 1249.53,516.997 1249.53,516.997C1249.53,516.997 1340.96,754.379 1340.96,754.379C1342.16,757.483 1345.14,759.531 1348.47,759.531L1512.79,759.531C1515.56,759.531 1518.13,758.109 1519.6,755.766C1521.07,753.423 1521.24,750.488 1520.04,747.996L1403.88,507.06Z" style="fill:rgb(25,135,84);"/>
    </g>
    <g transform="matrix(1.93013,0,0,1.93013,-3391.79,-3551.62)">
        <path d="M2136.19,1965.37C2136.03,1966.57 2136.39,1967.78 2137.18,1968.69C2137.97,1969.6 2139.12,1970.12 2140.33,1970.12L2247.57,1969.82C2254.1,1969.82 2260.86,1970.19 2267.84,1970.93C2274.45,1971.64 2280.37,1973.24 2285.58,1975.77C2290.47,1978.15 2294.31,1981.51 2297.09,1985.87C2299.81,1990.15 2300.48,1995.82 2299.44,2002.83C2299.43,2002.87 2299.43,2002.9 2299.42,2002.94C2298.61,2009.74 2296.62,2015.4 2293.36,2019.88C2290.09,2024.39 2286.14,2027.94 2281.49,2030.53C2276.71,2033.21 2271.5,2035.1 2265.87,2036.23C2260.06,2037.39 2254.11,2037.97 2248.02,2037.97C2248.02,2037.97 2129.67,2037.96 2129.67,2037.96C2127.59,2037.96 2125.83,2039.49 2125.54,2041.55L2099.57,2227.31C2099.4,2228.51 2099.76,2229.72 2100.55,2230.63C2101.34,2231.54 2102.49,2232.06 2103.69,2232.06L2174.72,2232.06C2176.8,2232.06 2178.56,2230.52 2178.84,2228.46L2195.65,2106.4C2195.65,2106.4 2243.92,2106.4 2243.92,2106.4C2261.22,2106.4 2277.52,2104.77 2292.82,2101.53C2308.37,2098.23 2322.19,2092.64 2334.28,2084.79C2346.47,2076.87 2356.69,2066.28 2364.92,2052.98C2373.08,2039.8 2378.61,2023.5 2381.44,2004.04C2381.44,2004.04 2381.44,2004.03 2381.44,2004.03C2384.29,1984.07 2383.09,1967.51 2378.02,1954.36C2372.86,1940.99 2364.94,1930.37 2354.3,1922.47C2343.84,1914.7 2331.09,1909.2 2316.03,1906.03C2301.35,1902.94 2285.5,1901.39 2268.5,1901.39C2268.5,1901.39 2148.76,1901.39 2148.76,1901.39C2146.69,1901.39 2144.93,1902.92 2144.64,1904.98L2136.19,1965.37Z" style="fill:rgb(13,110,253);"/>
    </g>
</svg>
